<?xml version="1.0" encoding="UTF-8"?>
<svg xmlns="http://www.w3.org/2000/svg" xmlns:xlink="http://www.w3.org/1999/xlink" width="113.596" height="35" viewBox="0 0 113.596 35">
  <defs>
    <linearGradient id="a" x1="-2.754" y1="2.929" x2="6.408" y2="-3.81" gradientUnits="objectBoundingBox">
      <stop offset="0" stop-color="#fff"></stop>
      <stop offset="0.5" stop-color="#4eabe9" stop-opacity="0.992"></stop>
      <stop offset="1" stop-color="#00aeef"></stop>
    </linearGradient>
    <linearGradient id="l" x1="-4.657" y1="4.764" x2="2.282" y2="-1.044" xlink:href="#a"></linearGradient>
    <linearGradient id="s" x1="-8.349" y1="4.073" x2="2.535" y2="-0.254" xlink:href="#a"></linearGradient>
    <linearGradient id="w" x1="0.397" y1="0.597" x2="1.257" y2="0.056" xlink:href="#a"></linearGradient>
  </defs>
  <path d="M41.657,103.908c-8.393,0-15.222-7.157-15.222-15.954S33.264,72,41.657,72s15.221,7.157,15.221,15.954S50.05,103.908,41.657,103.908Zm0-26.51a10.568,10.568,0,0,0,0,21.113,10.568,10.568,0,0,0,0-21.113Z" transform="translate(-26.435 -69.047)" fill="#fff"></path>
  <rect width="5.15" height="31.934" transform="translate(66.748 3.015)" fill="#fff"></rect>
  <g transform="translate(33.071 2.953)">
    <path d="M132.019,82.848,139.687,72H133.38l-4.514,6.386Z" transform="translate(-111.754 -72)" fill="#fff"></path>
    <path d="M98.9,72H92.612l10.813,16.034L92.72,103.908h6.307l7.552-11.2,7.552,11.2h6.292Z" transform="translate(-92.612 -72)" fill="#fff"></path>
  </g>
  <g transform="translate(80.056)">
    <path d="M215.4,80.365l.061-1.694a12.2,12.2,0,0,0-2.085.207l.379,1.651A10.449,10.449,0,0,1,215.4,80.365Z" transform="translate(-200.441 -72.287)" fill="url(#a)"></path>
    <path d="M208.94,81.423l-.38-1.657a12.159,12.159,0,0,0-1.939.764l.793,1.5A10.522,10.522,0,0,1,208.94,81.423Z" transform="translate(-196.874 -72.838)" fill="url(#a)"></path>
    <path d="M240.463,103.354c0,.027-.006.054-.007.081l1.694.062c0-.027.006-.053.007-.081a12.18,12.18,0,0,0-.087-1.849l-1.661.381A10.531,10.531,0,0,1,240.463,103.354Z" transform="translate(-214.713 -83.875)" fill="url(#a)"></path>
    <path d="M237.127,114.987l1.435.9a12.107,12.107,0,0,0,.854-1.623l-1.625-.5A10.5,10.5,0,0,1,237.127,114.987Z" transform="translate(-212.981 -90.041)" fill="url(#a)"></path>
    <path d="M239.5,109.642l1.618.5a12.109,12.109,0,0,0,.429-1.833l-1.712-.062A10.484,10.484,0,0,1,239.5,109.642Z" transform="translate(-214.232 -87.254)" fill="url(#a)"></path>
    <path d="M239.489,97.137l1.651-.379a12.1,12.1,0,0,0-.585-1.89l-1.5.795A10.478,10.478,0,0,1,239.489,97.137Z" transform="translate(-213.998 -80.477)" fill="url(#a)"></path>
    <path d="M233.6,119.569l1.154,1.241a12.289,12.289,0,0,0,1.2-1.33l-1.444-.905A10.615,10.615,0,0,1,233.6,119.569Z" transform="translate(-211.121 -92.471)" fill="url(#a)"></path>
    <path d="M236.116,89.945a10.626,10.626,0,0,1,.843,1.336l1.5-.793a12.27,12.27,0,0,0-1.088-1.707Z" transform="translate(-212.447 -77.394)" fill="url(#a)"></path>
    <path d="M222.018,80.747l.5-1.619a12.168,12.168,0,0,0-2.065-.358l-.061,1.694A10.5,10.5,0,0,1,222.018,80.747Z" transform="translate(-204.143 -72.336)" fill="url(#a)"></path>
    <path d="M233.011,86.338l1.241-1.154a12.307,12.307,0,0,0-1.537-1.368l-.906,1.444A10.6,10.6,0,0,1,233.011,86.338Z" transform="translate(-210.173 -74.883)" fill="url(#a)"></path>
    <path d="M227.907,82.712l.9-1.435a12.188,12.188,0,0,0-1.878-.9L226.43,82A10.437,10.437,0,0,1,227.907,82.712Z" transform="translate(-207.333 -73.144)" fill="url(#a)"></path>
    <path d="M237.047,81.442l1.2-1.113a15.317,15.317,0,0,0-2.13-1.872l-.87,1.388A13.677,13.677,0,0,1,237.047,81.442Z" transform="translate(-211.986 -72.169)" fill="url(#l)"></path>
    <path d="M206.7,75.2l-.367-1.6a15.1,15.1,0,0,0-2.662,1.049l.765,1.443A13.508,13.508,0,0,1,206.7,75.2Z" transform="translate(-195.318 -69.891)" fill="url(#a)"></path>
    <path d="M246.821,102.715c0,.027-.006.053-.007.081l1.634.059c0-.027,0-.054.005-.081a15.228,15.228,0,0,0-.136-2.628l-1.61.369A13.526,13.526,0,0,1,246.821,102.715Z" transform="translate(-218.039 -83.137)" fill="url(#l)"></path>
    <path d="M242.57,117.6l1.39.871a15.112,15.112,0,0,0,1.2-2.324l-1.583-.486A13.561,13.561,0,0,1,242.57,117.6Z" transform="translate(-215.854 -90.975)" fill="url(#a)"></path>
    <path d="M237.982,123.6l1.113,1.2a15.324,15.324,0,0,0,1.711-1.917l-1.4-.875A13.73,13.73,0,0,1,237.982,123.6Z" transform="translate(-213.432 -93.987)" fill="url(#a)"></path>
    <path d="M230.518,76.95l.868-1.384a15.082,15.082,0,0,0-2.579-1.239l-.482,1.57A13.539,13.539,0,0,1,230.518,76.95Z" transform="translate(-208.333 -70.276)" fill="url(#l)"></path>
    <path d="M214.094,67.52l.065-1.776a18.262,18.262,0,0,0-3.671.365l.4,1.733A16.476,16.476,0,0,1,214.094,67.52Z" transform="translate(-198.915 -65.744)" fill="url(#a)"></path>
    <path d="M251.32,92.587l1.732-.4a18.169,18.169,0,0,0-1.128-3.39l-1.573.833A16.41,16.41,0,0,1,251.32,92.587Z" transform="translate(-219.963 -77.381)" fill="url(#s)"></path>
    <path d="M254.632,98.665l-1.738.4a16.533,16.533,0,0,1,.164,2.977c0,.027,0,.053,0,.081l1.776.064c0-.027,0-.053,0-.08A18.321,18.321,0,0,0,254.632,98.665Z" transform="translate(-221.305 -82.368)" fill="url(#s)"></path>
    <path d="M233.078,71.092l.944-1.505A18.226,18.226,0,0,0,230.7,68l-.523,1.7A16.458,16.458,0,0,1,233.078,71.092Z" transform="translate(-209.314 -66.936)" fill="url(#l)"></path>
    <path d="M244.956,71.493l1.38-1.283a21.55,21.55,0,0,0-3.376-2.91l-1,1.6A19.656,19.656,0,0,1,244.956,71.493Z" transform="translate(-215.531 -66.566)" fill="url(#s)"></path>
    <path d="M209.544,100.764a13.669,13.669,0,0,1-1.76,1.16l-.626-1.183a12.278,12.278,0,0,0,1.475-.958l-1.164-1.251a10.555,10.555,0,0,1-1.1.713h0A10.494,10.494,0,0,1,194.194,82.3c-.051,0-.012.011,0,0a9.921,9.921,0,0,1,1.206-1l-.8-1.506a12.309,12.309,0,0,0-1.633,1.253l-.912-.981a13.691,13.691,0,0,1,1.914-1.462l-.767-1.447a15.368,15.368,0,0,0-2.276,1.7c-.006.006.005.006,0,0a15.2,15.2,0,0,0,17.628,24.522c0-.008-.016.009,0,0a15.26,15.26,0,0,0,2.1-1.415Z" transform="translate(-185.97 -70.306)" fill="url(#w)"></path>
  </g>
</svg>
